<?xml version="1.0" encoding="utf-8"?>
<!-- Generator: Adobe Illustrator 16.0.0, SVG Export Plug-In . SVG Version: 6.00 Build 0)  -->
<!DOCTYPE svg PUBLIC "-//W3C//DTD SVG 1.1//EN" "http://www.w3.org/Graphics/SVG/1.1/DTD/svg11.dtd">
<svg version="1.1" id="Layer_1" xmlns="http://www.w3.org/2000/svg" xmlns:xlink="http://www.w3.org/1999/xlink" x="0px" y="0px"
	 width="18px" height="18px" viewBox="0 0 100 100" enable-background="new 0 0 100 100" xml:space="preserve">
<g>
	<g>
		<g>
			<path d="M14.615,74.918c-3.145,0-5.703,2.555-5.703,5.695c0,3.145,2.559,5.701,5.703,5.701c3.142,0,5.7-2.557,5.7-5.701
				C20.315,77.473,17.757,74.918,14.615,74.918z M14.615,82.555c-1.071,0-1.943-0.869-1.943-1.941c0-1.066,0.873-1.939,1.943-1.939
				c1.068,0,1.94,0.873,1.94,1.939C16.556,81.686,15.683,82.555,14.615,82.555z"/>
		</g>
	</g>
	<g>
		<g>
			<path d="M96.815,52.576c1.937-1.563,3.184-3.958,3.184-6.637c0-4.697-3.821-8.519-8.519-8.519H61.246
				c0.94-2.05,2.024-5.171,2.643-9.51c1.442-10.083-0.735-15.435-2.815-18.149c-1.758-2.296-4.121-3.687-6.835-4.017
				c-2.293-0.28-4.379,1.536-4.44,3.836c-0.352,3.617-1.641,13.535-3.486,17.224c-4.736,9.474-16.032,15.124-19.519,16.687
				c-1.221-1.05-2.806-1.686-4.538-1.686H6.972C3.128,41.805,0,44.933,0,48.779V86.98c0,3.848,3.128,6.973,6.973,6.973h15.283
				c2.054,0,3.91-0.895,5.186-2.316c1.982,1.252,5.186,2.648,9.606,2.648h49.124c4.697,0,8.519-3.82,8.519-8.518
				c0-2.152-0.804-4.121-2.125-5.623c2.825-1.387,4.778-4.297,4.778-7.656c0-2.148-0.804-4.121-2.126-5.617
				c2.829-1.391,4.782-4.297,4.782-7.656C99.999,56.531,98.752,54.139,96.815,52.576z M22.255,90.197H6.972
				c-1.771,0-3.213-1.441-3.213-3.217V48.779c0-1.773,1.442-3.214,3.213-3.214h15.283c0.895,0,1.709,0.371,2.292,0.965v41.916
				c0,0.229,0.039,0.449,0.117,0.658C24.075,89.773,23.216,90.197,22.255,90.197z M83.586,54.457h7.895
				c2.627,0,4.762,2.133,4.762,4.758c0,2.623-2.135,4.758-4.762,4.758h-7.895c-1.041,0-1.881,0.84-1.881,1.883
				c0,1.035,0.84,1.877,1.881,1.877h5.241c2.624,0,4.759,2.133,4.759,4.756c0,2.625-2.135,4.76-4.759,4.76h-6.687
				c-1.035,0-1.878,0.844-1.878,1.881c0,1.039,0.843,1.883,1.878,1.883h4.03c2.624,0,4.759,2.135,4.759,4.756
				c0,2.627-2.135,4.758-4.759,4.758H37.05c-3.88,0-6.51-1.299-7.939-2.275c0.075-0.41,0.117-0.836,0.117-1.27V48.779
				c0-0.735-0.114-1.443-0.326-2.109c4.404-2.021,15.681-7.998,20.771-18.185c2.549-5.094,3.822-18.07,3.871-18.62
				c0.006-0.059,0.01-0.119,0.01-0.179c0-0.063,0.025-0.119,0.074-0.161c0.064-0.059,0.131-0.052,0.152-0.049
				c1.176,0.143,2.881,0.707,4.311,2.572c1.641,2.142,3.333,6.541,2.076,15.332c-1.064,7.449-3.587,10.709-3.604,10.73
				c-0.986,1.205-0.098,3.07,1.455,3.07H91.48c2.627,0,4.762,2.134,4.762,4.759c0,2.624-2.139,4.758-4.762,4.758h-7.897
				c-1.038,0-1.878,0.842-1.878,1.879C81.705,53.615,82.545,54.457,83.586,54.457z"/>
		</g>
	</g>
</g>
</svg>
